# xmcd
#
# Track frame offsets: 
#        150
#        15681
#        35393
#        53309
#        78765
#        105537
#        125031
#        142551
#        166246
#        188447
#        202517
#        221482
#
# Disc length: 3320 seconds
#
# Revision: 1
# Processed by: cddbd v1.5.2PL0 Copyright (c) Steve Scherf et al.
# Submitted via: ExactAudioCopy v0.95b4
#
DISCID=820cf60c
DTITLE=all about davenport - Liebeslänglich
DYEAR=2014
DGENRE=Pop
TTITLE0=Pride (U2)
TTITLE1=Man In The Mirror (Michael Jackson)
TTITLE2=The Story (Brandy Carlile)
TTITLE3=Message In A Bottle (Police)
TTITLE4=Hosanna (Hillsong United)
TTITLE5=I'm Yours (Jason Mraz)
TTITLE6=Hallelujah (Leonard Cohen)
TTITLE7=Bleib (Nicole Martin, Walter Schneider)
TTITLE8=Nothing Compares To You (Prince)
TTITLE9=Sailboats (Brooke Fraser)
TTITLE10=Steh wieder auf (Gregor Meyle)
TTITLE11=Ich hör nicht auf (Tim Bendzko)
EXTD=
EXTT0=
EXTT1=
EXTT2=
EXTT3=
EXTT4=
EXTT5=
EXTT6=
EXTT7=
EXTT8=
EXTT9=
EXTT10=
EXTT11=
PLAYORDER=
